<?xml version="1.0" encoding="UTF-8"?>
<svg version="1.1" xmlns="http://www.w3.org/2000/svg" width="48" height="48">
<path d="M0 0 C11.88 0 23.76 0 36 0 C37.33928571 26.51785714 37.33928571 26.51785714 32.625 32.625 C24.0150102 39.27130792 9.88730635 36.49935891 0 36 C0 24.12 0 12.24 0 0 Z " fill="#FDA250" transform="translate(6,6)"/>
<path d="M0 0 C11.88 0 23.76 0 36 0 C37.26501216 25.0472408 37.26501216 25.0472408 33.80859375 29.953125 C27.59375 36 27.59375 36 25 36 C24.97311849 34.35425434 24.95365877 32.70838587 24.9375 31.0625 C24.92589844 30.14597656 24.91429688 29.22945312 24.90234375 28.28515625 C25 26 25 26 26 25 C27.99958364 24.95919217 30.00045254 24.95745644 32 25 C32 22.69 32 20.38 32 18 C22.76 18 13.52 18 4 18 C4 19.32 4 20.64 4 22 C4.66 21.67 5.32 21.34 6 21 C7.87379605 20.92966231 9.75001102 20.9156978 11.625 20.9375 C13.12933594 20.95103516 13.12933594 20.95103516 14.6640625 20.96484375 C15.43492188 20.97644531 16.20578125 20.98804687 17 21 C17 21.99 17 22.98 17 24 C12.71 24 8.42 24 4 24 C3.67 24.66 3.34 25.32 3 26 C3 22.04 3 18.08 3 14 C12.57 14 22.14 14 32 14 C32 11.36 32 8.72 32 6 C22.43 6 12.86 6 3 6 C3 7.65 3 9.3 3 11 C2.34 11 1.68 11 1 11 C1 14.96 1 18.92 1 23 C0.67 23 0.34 23 0 23 C0 15.41 0 7.82 0 0 Z " fill="#FE9936" transform="translate(6,6)"/>
<path d="M0 0 C9.24 0 18.48 0 28 0 C28 2.31 28 4.62 28 7 C26.02 7.33 24.04 7.66 22 8 C21.67 10.31 21.34 12.62 21 15 C13.74 15 6.48 15 -1 15 C-1 8 -1 8 0 6 C2.94140625 5.5859375 2.94140625 5.5859375 6.5625 5.375 C7.76003906 5.30023437 8.95757812 5.22546875 10.19140625 5.1484375 C11.58166016 5.07496094 11.58166016 5.07496094 13 5 C13 4.67 13 4.34 13 4 C8.71 4 4.42 4 0 4 C0 2.68 0 1.36 0 0 Z " fill="#FF881C" transform="translate(10,24)"/>
<path d="M0 0 C11.88 0 23.76 0 36 0 C37.26501216 25.0472408 37.26501216 25.0472408 33.80859375 29.953125 C27.59375 36 27.59375 36 25 36 C24.97311849 34.35425434 24.95365877 32.70838587 24.9375 31.0625 C24.92589844 30.14597656 24.91429688 29.22945312 24.90234375 28.28515625 C25 26 25 26 26 25 C28.97 25 31.94 25 35 25 C34.34 17.74 33.68 10.48 33 3 C22.77 3 12.54 3 2 3 C1.67 9.6 1.34 16.2 1 23 C0.67 23 0.34 23 0 23 C0 15.41 0 7.82 0 0 Z " fill="#FDE1AE" transform="translate(6,6)"/>
<path d="M0 0 C10.23 0 20.46 0 31 0 C33.25 10.125 33.25 10.125 33.125 16.0625 C33.10695312 17.18785156 33.08890625 18.31320313 33.0703125 19.47265625 C33.04710937 20.30667969 33.02390625 21.14070313 33 22 C32.34 22 31.68 22 31 22 C30.505 12.595 30.505 12.595 30 3 C20.43 3 10.86 3 1 3 C1 4.65 1 6.3 1 8 C0.67 8 0.34 8 0 8 C0 5.36 0 2.72 0 0 Z " fill="#FCC76E" transform="translate(8,9)"/>
<path d="M0 0 C7.26 0.33 14.52 0.66 22 1 C22 2.98 22 4.96 22 7 C14.74 7 7.48 7 0 7 C0 4.69 0 2.38 0 0 Z " fill="#FD5E34" transform="translate(9,32)"/>
<path d="M0 0 C1.93166016 0.01740234 1.93166016 0.01740234 3.90234375 0.03515625 C5.19269531 0.04417969 6.48304687 0.05320312 7.8125 0.0625 C8.81152344 0.07410156 9.81054688 0.08570312 10.83984375 0.09765625 C10.83984375 1.08765625 10.83984375 2.07765625 10.83984375 3.09765625 C4.77831745 5.23306219 -0.70892319 5.33619491 -7.09765625 5.22265625 C-8.06767578 5.21363281 -9.03769531 5.20460938 -10.03710938 5.1953125 C-12.41172032 5.17191732 -14.78580401 5.13913801 -17.16015625 5.09765625 C-17.16015625 4.10765625 -17.16015625 3.11765625 -17.16015625 2.09765625 C-16.23332031 2.03707031 -15.30648438 1.97648437 -14.3515625 1.9140625 C-12.55525391 1.78837891 -12.55525391 1.78837891 -10.72265625 1.66015625 C-8.93021484 1.53833984 -8.93021484 1.53833984 -7.1015625 1.4140625 C-3.66032205 1.04388922 -3.53377063 0.10920181 0 0 Z " fill="#FE7022" transform="translate(27.16015625,27.90234375)"/>
<path d="M0 0 C0.33 0 0.66 0 1 0 C1 7.59 1 15.18 1 23 C8.59 23 16.18 23 24 23 C24 23.66 24 24.32 24 25 C15.75 25 7.5 25 -1 25 C-1.09141712 16.58962522 -0.84432616 8.36787538 0 0 Z " fill="#FEA89D" transform="translate(7,17)"/>
<path d="M0 0 C7.92 0 15.84 0 24 0 C24 0.99 24 1.98 24 3 C16.08 3 8.16 3 0 3 C0 2.01 0 1.02 0 0 Z " fill="#FBEAC1" transform="translate(12,21)"/>
<path d="M0 0 C7.92 0 15.84 0 24 0 C24 0.99 24 1.98 24 3 C16.08 3 8.16 3 0 3 C0 2.01 0 1.02 0 0 Z " fill="#FBEBC2" transform="translate(12,15)"/>
<path d="M0 0 C1.37478516 0.01740234 1.37478516 0.01740234 2.77734375 0.03515625 C3.69644531 0.04417969 4.61554687 0.05320312 5.5625 0.0625 C6.27277344 0.07410156 6.98304687 0.08570312 7.71484375 0.09765625 C4.33383995 4.23386709 1.04893841 7.91082194 -3.28515625 11.09765625 C-3.31203776 9.45191059 -3.33149748 7.80604212 -3.34765625 6.16015625 C-3.35925781 5.24363281 -3.37085937 4.32710937 -3.3828125 3.3828125 C-3.25079574 0.2936203 -3.0891922 0.13201676 0 0 Z " fill="#FDE0BA" transform="translate(34.28515625,30.90234375)"/>
<path d="M0 0 C6.93 0 13.86 0 21 0 C21 0.99 21 1.98 21 3 C14.07 3 7.14 3 0 3 C0 2.01 0 1.02 0 0 Z " fill="#FD502C" transform="translate(10,35)"/>
<path d="M0 0 C9.24 0 18.48 0 28 0 C28 1.65 28 3.3 28 5 C27.34 4.67 26.68 4.34 26 4 C26 3.67 26 3.34 26 3 C17.42 3 8.84 3 0 3 C0 2.01 0 1.02 0 0 Z " fill="#FDBA52" transform="translate(10,13)"/>
<path d="M0 0 C3.63 0 7.26 0 11 0 C11 0.99 11 1.98 11 3 C7.37 3 3.74 3 0 3 C0 2.01 0 1.02 0 0 Z " fill="#FCE2B6" transform="translate(12,27)"/>
<path d="M0 0 C3.63 0 7.26 0 11 0 C11 0.99 11 1.98 11 3 C7.37 3 3.74 3 0 3 C0 2.01 0 1.02 0 0 Z " fill="#FDD3A2" transform="translate(25,21)"/>
<path d="M0 0 C1.134375 0.020625 2.26875 0.04125 3.4375 0.0625 C0.77083333 2.72916667 -1.89583333 5.39583333 -4.5625 8.0625 C-4.60491723 5.72955225 -4.60342937 3.39547433 -4.5625 1.0625 C-3.5625 0.0625 -3.5625 0.0625 0 0 Z " fill="#FCF0CC" transform="translate(35.5625,30.9375)"/>
<path d="M0 0 C1.8871875 0.0309375 1.8871875 0.0309375 3.8125 0.0625 C3.8125 1.0525 3.8125 2.0425 3.8125 3.0625 C2.554375 3.10375 1.29625 3.145 0 3.1875 C-0.70769531 3.21070313 -1.41539063 3.23390625 -2.14453125 3.2578125 C-4.1875 3.0625 -4.1875 3.0625 -7.1875 1.0625 C-4.43671116 0.14557039 -2.82801087 -0.04636083 0 0 Z " fill="#FDD3A2" transform="translate(32.1875,14.9375)"/>
<path d="M0 0 C0.99 0.33 1.98 0.66 3 1 C2.01 1.495 2.01 1.495 1 2 C0.53045739 5.04581269 0.53045739 5.04581269 0.375 8.5625 C0.30023438 9.76003906 0.22546875 10.95757812 0.1484375 12.19140625 C0.09945313 13.11824219 0.05046875 14.04507812 0 15 C-0.33 15 -0.66 15 -1 15 C-1.02685412 12.68756208 -1.04632841 10.3750373 -1.0625 8.0625 C-1.07410156 6.77472656 -1.08570313 5.48695312 -1.09765625 4.16015625 C-1 1 -1 1 0 0 Z " fill="#FEAE5D" transform="translate(9,16)"/>
</svg>
